PathFileType	4	(X/Y/Z)	C:/Users/opensim2020/Desktop/walking_exp_matlab/subject01_walking04_straight_03.trc																																																																																																																															
DataRate	CameraRate	NumFrames	NumMarkers	Units	OrigDataRate	OrigDataStartFrame	OrigNumFrames																																																																																																																											
100	100	4	43	mm	100	2154	211																																																																																																																											
Frame#	Time	LFHD			RFHD			LBHD			RBHD			C7			T10			CLAV			STRN			RBAK			LSHO			LUPA			LELB			LFRM			LWRA			LWRB			LFIN			RSHO			RUPA			RELB			RFRM			RWRA			RWRB			RFIN			LASI			RASI			LPSI			RPSI			LTHI			LKNE			LTIB			LANK			LHEE			LTOE			RTHI			RKNE			RTIB			RANK			RHEE			RTOE			*39			*40			*41			*42		
		X1	Y1	Z1	X2	Y2	Z2	X3	Y3	Z3	X4	Y4	Z4	X5	Y5	Z5	X6	Y6	Z6	X7	Y7	Z7	X8	Y8	Z8	X9	Y9	Z9	X10	Y10	Z10	X11	Y11	Z11	X12	Y12	Z12	X13	Y13	Z13	X14	Y14	Z14	X15	Y15	Z15	X16	Y16	Z16	X17	Y17	Z17	X18	Y18	Z18	X19	Y19	Z19	X20	Y20	Z20	X21	Y21	Z21	X22	Y22	Z22	X23	Y23	Z23	X24	Y24	Z24	X25	Y25	Z25	X26	Y26	Z26	X27	Y27	Z27	X28	Y28	Z28	X29	Y29	Z29	X30	Y30	Z30	X31	Y31	Z31	X32	Y32	Z32	X33	Y33	Z33	X34	Y34	Z34	X35	Y35	Z35	X36	Y36	Z36	X37	Y37	Z37	X38	Y38	Z38	X39	Y39	Z39	X40	Y40	Z40	X41	Y41	Z41	X42	Y42	Z42	X43	Y43	Z43
																																																																																																																																		
53	0.52	-560.55396	1668.9845	-1095.29004	-541.03815	1675.76416	-982.88922	-676.70703	1623.03235	-1080.47571	-659.00787	1629.06958	-960.79993	-716.6441	1434.27991	-1036.52051	-758.44958	1142.36548	-1026.86133	-574.47797	1362.14819	-1040.75317	-536.46625	1207.49365	-1046.46924	-772.47534	1241.53638	-955.33221	-640.08484	1392.01196	-1200.30371	-687.61377	1209.72009	-1281.07617	-716.96143	1061.60278	-1278.13049	-690.74603	950.28784	-1302.59753	-623.69537	827.50586	-1283.55823	-678.92767	828.23413	-1308.69885	-639.06293	752.45532	-1313.9292	-631.42871	1390.49695	-886.68121	-681.3454	1192.71765	-778.15118	-672.099	1066.98047	-765.80328	-611.96661	959.76953	-737.0213	-502.88638	870.60992	-762.84155	-542.12927	860.50409	-720.57013	-484.12723	798.17261	-722.74756	-586.05267	935.36542	-1133.25134	-589.42914	934.55017	-914.82739	-773.10095	945.44354	-1084.94067	-775.12347	950.44556	-940.59967	-530.6767	623.57202	-1205.16052	-507.58249	491.39935	-1193.63049	-606.03632	331.06976	-1196.42456	-692.66296	130.7229	-1145.96045	-732.57007	109.61073	-1084.07544	-575.21942	52.85941	-1179.59558	-661.63483	599.94727	-873.91205	-659.17389	442.04776	-906.72681	-716.32434	274.2601	-907.56293	-742.38904	71.46719	-967.68207	-790.50476	34.64505	-1020.84265	-601.57172	33.38012	-966.71564	-554.28424	1709.36487	-1004.93213	1973.07666	1024.03845	-3102.25488	2013.17285	1022.2699	-3138.41772	NaN	NaN	NaN
54	0.53	-552.11591	1668.63708	-1094.44885	-532.51587	1675.38098	-981.92511	-668.32159	1622.84192	-1079.47852	-650.54132	1628.78369	-959.81287	-708.41803	1434.08325	-1035.55566	-750.17963	1142.1134	-1025.86768	-566.13519	1361.84985	-1039.68665	-528.1969	1207.04675	-1045.67212	-764.26495	1241.29968	-954.29742	-631.75842	1391.78625	-1199.43445	-680.22638	1209.58728	-1280.15283	-710.68903	1061.99646	-1276.89844	-686.46277	950.27081	-1301.32068	-622.03967	826.09253	-1282.00452	-677.12115	828.01636	-1307.44873	-639.00513	751.11487	-1312.03601	-623.04761	1390.02075	-885.71521	-672.01605	1191.95361	-777.27124	-661.83392	1066.2738	-764.56659	-599.51337	960.12036	-736.29578	-488.45126	873.56622	-762.2262	-527.71729	862.2887	-720.44965	-468.00195	801.40381	-722.73383	-577.5824	935.17548	-1132.6084	-581.74933	933.71576	-914.04321	-764.75354	945.28735	-1084.8075	-767.65332	950.43896	-940.48053	-519.79419	624.31232	-1203.87915	-496.23218	492.06506	-1191.13806	-588.24384	326.95575	-1194.18188	-664.66956	122.35821	-1143.80408	-703.48444	99.38222	-1081.78296	-543.61749	50.91063	-1178.21826	-656.79834	599.53485	-873.89856	-655.68445	441.63232	-906.3634	-714.36395	274.31555	-907.64093	-741.85931	71.49504	-967.75482	-790.05261	34.89459	-1021.02728	-601.47772	33.3771	-966.72528	-545.68225	1708.95813	-1004.00641	1972.73352	1024.42419	-3103.30591	2013.11499	1022.18317	-3138.56104	NaN	NaN	NaN
55	0.54	-543.67542	1668.22021	-1093.56079	-523.78223	1675.11951	-980.97119	-659.7229	1622.44348	-1078.32288	-641.97961	1628.44336	-958.87183	-699.96021	1433.78125	-1034.61633	-741.83661	1141.77747	-1024.95435	-557.70056	1361.47095	-1039.30469	-519.89709	1206.54883	-1044.89844	-756.31659	1241.11621	-953.22583	-623.40631	1391.4209	-1198.5802	-672.83777	1209.3147	-1279.19934	-704.35876	1062.16492	-1275.67651	-682.13141	950.21399	-1300.03796	-619.94135	824.91962	-1280.80835	-675.05048	827.7052	-1306.22192	-638.71008	749.86108	-1310.3866	-614.44977	1389.46912	-885.04529	-662.57739	1191.24512	-776.38629	-651.46417	1065.57373	-763.3725	-587.04462	960.43982	-735.61346	-474.26596	876.44183	-762.09863	-513.30231	864.04132	-720.39636	-452.28983	804.55475	-723.00006	-569.10809	934.83063	-1131.89075	-574.22595	932.71478	-913.37823	-756.39551	945.1095	-1084.75537	-759.57605	949.94434	-940.41455	-509.50186	624.5213	-1202.60364	-485.95508	492.28497	-1189.19226	-570.51263	322.58109	-1192.54919	-636.3053	114.22295	-1141.73987	-673.52319	89.24197	-1079.49365	-511.79031	49.13125	-1176.81628	-651.7912	599.10455	-873.85297	-652.65845	441.33173	-906.33044	-712.74219	274.41168	-907.71582	-741.65833	71.85708	-967.86957	-789.39703	34.76445	-1021.33368	-601.24548	33.24661	-966.69348	-537.18427	1708.55737	-1003.18896	1973.13391	1024.53931	-3102.07666	2013.27686	1022.39673	-3137.97119	NaN	NaN	NaN
56	0.55	-535.19568	1667.68909	-1092.82751	-515.36395	1674.46899	-980.33344	-651.3902	1622.0061	-1077.71143	-633.42645	1628.0481	-958.01208	-691.58795	1433.25464	-1033.79736	-733.38409	1141.28418	-1024.1925	-549.33044	1360.86328	-1038.21973	-511.61429	1205.9906	-1044.15112	-747.66901	1240.56091	-952.40051	-615.05127	1390.99341	-1197.88733	-665.39685	1208.9397	-1278.31628	-697.8725	1062.31702	-1274.5874	-677.65857	950.02991	-1298.97375	-617.7735	823.42969	-1279.53174	-672.75732	827.50055	-1305.10022	-638.11285	748.69562	-1308.9425	-605.90802	1388.87695	-884.31738	-652.90759	1190.55725	-775.52917	-640.73541	1064.98853	-762.48456	-574.67542	960.81738	-735.09967	-460.41077	879.16565	-762.21106	-498.99728	865.70306	-720.42712	-436.68192	807.65997	-723.35889	-560.34662	934.52423	-1131.31726	-566.50421	931.58893	-912.71869	-747.94824	944.76355	-1084.81616	-751.65955	949.61279	-940.49677	-499.5105	624.60565	-1201.33374	-475.93069	492.13443	-1186.96375	-552.69958	317.9621	-1190.67261	-607.42926	106.43675	-1139.90662	-643.11566	80.01124	-1077.29211	-479.91602	47.80954	-1175.33826	-646.93445	598.70465	-873.72467	-649.552	440.79947	-906.1153	-711.02307	274.65662	-907.65558	-741.54663	72.2528	-967.95215	-789.40973	35.5561	-1021.62573	-601.46405	33.17023	-966.75	-528.53406	1707.99292	-1002.39246	1972.95496	1024.49109	-3102.67236	2013.12622	1022.19952	-3138.34155	NaN	NaN	NaN
